{"title":"Jurassic.World.2015.720p.WEB-DL.XviD.MP3-RARBG","uid":12391977,"size":3735019319,"categoryP":"video","categoryS":"hd___movies","magnet":"?xt=urn:btih:3d6c489c8ccb282a475b3b39df25123fbc7e405a&amp;dn=Jurassic.World.2015.720p.WEB-DL.XviD.MP3-RARBG&amp;tr=udp%3A%2F%2Ftracker.openbittorrent.com%3A80&amp;tr=udp%3A%2F%2Fopen.demonii.com%3A1337&amp;tr=udp%3A%2F%2Ftracker.coppersurfer.tk%3A6969&amp;tr=udp%3A%2F%2Fexodus.desync.com%3A6969","seeders":2,"leechers":1,"uploader":"vickey1992","files":4,"time":1441900648,"description":"Video\nID                                       : 0\nFormat                                   : MPEG-4 Visual\nFormat profile                           : Simple@L5\nFormat settings, BVOP                    : No\nFormat settings, QPel                    : No\nFormat settings, GMC                     : No warppoints\nFormat settings, Matrix                  : Default (H.263)\nCodec ID                                 : XVID\nCodec ID/Hint                            : XviD\nDuration                                 : 2h 4mn\nBit rate                                 : 3 798 Kbps\nWidth                                    : 1 280 pixels\nHeight                                   : 638 pixels\nDisplay aspect ratio                     : 2.006\nFrame rate                               : 23.976 fps\nColor space                              : YUV\nChroma subsampling                       : 4:2:0\nBit depth                                : 8 bits\nScan type                                : Progressive\nCompression mode                         : Lossy\nBits/(Pixel*Frame)                       : 0.194\nStream size                              : 3.30 GiB (95%)\nWriting library                          : Lavc56.13.100\n\nAudio\nID                                       : 1\nFormat                                   : MPEG Audio\nFormat version                           : Version 1\nFormat profile                           : Layer 3\nMode                                     : Joint stereo\nMode extension                           : MS Stereo\nCodec ID                                 : 55\nCodec ID/Hint                            : MP3\nDuration                                 : 2h 4mn\nBit rate mode                            : Constant\nBit rate                                 : 192 Kbps\nChannel(s)                               : 2 channels\nSampling rate                            : 48.0 KHz\nCompression mode                         : Lossy\nStream size                              : 171 MiB (5%)\nAlignment                                : Aligned on interleaves\nInterleave, duration                     : 24 ms (0.58 video frame)\nInterleave, preload duration             : 504 ms\nWriting library                          : LAME3.99.5","torrent":{"xt":"urn:btih:3d6c489c8ccb282a475b3b39df25123fbc7e405a","amp;dn":"Jurassic.World.2015.720p.WEB-DL.XviD.MP3-RARBG","amp;tr":["udp%3A%2F%2Ftracker.openbittorrent.com%3A80","udp%3A%2F%2Fopen.demonii.com%3A1337","udp%3A%2F%2Ftracker.coppersurfer.tk%3A6969","udp%3A%2F%2Fexodus.desync.com%3A6969"],"infoHash":"3d6c489c8ccb282a475b3b39df25123fbc7e405a","infoHashBuffer":{"type":"Buffer","data":[61,108,72,156,140,203,40,42,71,91,59,57,223,37,18,63,188,126,64,90]},"announce":[],"urlList":[]}}